<?xml version="1.0" encoding="UTF-8"?>
<svg id="Capa_1" xmlns="http://www.w3.org/2000/svg" version="1.1" viewBox="0 0 192.52 150">
  <!-- Generator: Adobe Illustrator 29.6.1, SVG Export Plug-In . SVG Version: 2.1.1 Build 9)  -->
  <defs>
    <style>
      .st0, .st1 {
        fill: #fff;
      }

      .st1 {
        fill-rule: evenodd;
      }
    </style>
  </defs>
  <g>
    <polygon class="st1" points="90.54 1.88 110.35 1.88 149.87 100.77 129.94 100.77 90.54 1.88"/>
    <polygon class="st1" points="110.35 1.88 90.54 1.88 43.92 100.77 63.73 100.77 110.35 1.88"/>
    <path class="st1" d="M129.94,100.77h19.93c-10.74-16.08-29.09-26.68-49.91-26.68-3.21,0-6.35.26-9.41.74v15.46c3.06-.66,6.23-1.02,9.48-1.02,11.51,0,22.01,4.36,29.91,11.51Z"/>
  </g>
  <g>
    <path class="st0" d="M15.92,124.92v-12.52h2.22v12.52h-2.22Z"/>
    <path class="st0" d="M21.13,124.92v-9.4h1.82l.15,1.26h.08c.42-.41.88-.76,1.37-1.05.49-.29,1.06-.44,1.71-.44,1.01,0,1.74.32,2.2.97.46.64.69,1.57.69,2.77v5.9h-2.2v-5.61c0-.78-.11-1.33-.34-1.65-.23-.32-.61-.48-1.13-.48-.41,0-.77.1-1.08.3-.31.2-.67.49-1.06.87v6.57h-2.2Z"/>
    <path class="st0" d="M34.47,125.15c-.65,0-1.29-.12-1.92-.37s-1.18-.56-1.64-.93l1.03-1.42c.42.33.84.59,1.25.78s.86.28,1.35.28c.51,0,.89-.11,1.13-.32.24-.21.36-.48.36-.81,0-.19-.06-.36-.17-.51s-.27-.28-.46-.39c-.19-.11-.41-.22-.65-.32-.24-.1-.48-.19-.73-.3-.31-.12-.62-.25-.94-.4-.32-.15-.6-.34-.85-.56s-.45-.47-.61-.76c-.16-.29-.24-.63-.24-1.02,0-.83.31-1.51.92-2.03.61-.52,1.45-.78,2.51-.78.65,0,1.24.11,1.76.34.52.23.98.49,1.36.79l-1.01,1.34c-.33-.24-.67-.44-1-.58-.34-.15-.69-.22-1.06-.22-.47,0-.82.1-1.04.3-.22.2-.33.44-.33.74,0,.19.05.35.16.49.11.13.25.25.43.36.18.1.39.2.62.29.24.09.48.18.74.27.32.12.64.25.96.39s.61.33.87.55c.26.22.47.48.63.79.16.31.24.69.24,1.12,0,.41-.08.79-.24,1.14-.16.35-.39.66-.7.92-.31.26-.69.47-1.15.62-.46.15-.98.23-1.57.23Z"/>
    <path class="st0" d="M43.03,125.15c-.55,0-1.01-.08-1.39-.25-.38-.17-.68-.4-.92-.7-.24-.3-.41-.66-.52-1.07-.11-.41-.16-.88-.16-1.39v-4.48h-1.34v-1.65l1.46-.1.27-2.57h1.84v2.57h2.39v1.74h-2.39v4.48c0,1.1.44,1.65,1.32,1.65.17,0,.33-.02.51-.06.17-.04.33-.09.47-.15l.38,1.63c-.26.09-.55.17-.87.24-.33.07-.67.11-1.04.11Z"/>
    <path class="st0" d="M47.74,113.87c-.4,0-.72-.12-.98-.34-.26-.23-.38-.53-.38-.9s.13-.67.38-.91c.26-.24.58-.36.98-.36s.72.12.98.36c.26.24.38.54.38.91s-.13.67-.38.9c-.26.23-.58.34-.98.34ZM46.63,124.92v-9.4h2.2v9.4h-2.2Z"/>
    <path class="st0" d="M54.96,125.15c-.55,0-1.01-.08-1.39-.25-.38-.17-.68-.4-.92-.7-.24-.3-.41-.66-.52-1.07-.11-.41-.16-.88-.16-1.39v-4.48h-1.34v-1.65l1.46-.1.27-2.57h1.84v2.57h2.39v1.74h-2.39v4.48c0,1.1.44,1.65,1.32,1.65.17,0,.33-.02.51-.06.17-.04.33-.09.47-.15l.38,1.63c-.26.09-.55.17-.87.24-.33.07-.67.11-1.04.11Z"/>
    <path class="st0" d="M61.35,125.15c-1.01,0-1.74-.32-2.2-.97-.46-.64-.69-1.57-.69-2.77v-5.9h2.2v5.61c0,.78.11,1.33.34,1.65.23.32.6.48,1.11.48.41,0,.77-.1,1.08-.31.31-.2.65-.54,1.01-1v-6.43h2.2v9.4h-1.8l-.17-1.38h-.06c-.41.49-.85.87-1.33,1.17-.48.29-1.04.44-1.69.44Z"/>
    <path class="st0" d="M72.51,125.15c-.55,0-1.01-.08-1.39-.25-.38-.17-.68-.4-.92-.7-.24-.3-.41-.66-.52-1.07-.11-.41-.16-.88-.16-1.39v-4.48h-1.34v-1.65l1.46-.1.27-2.57h1.84v2.57h2.39v1.74h-2.39v4.48c0,1.1.44,1.65,1.32,1.65.17,0,.33-.02.51-.06.17-.04.33-.09.47-.15l.38,1.63c-.26.09-.55.17-.87.24-.33.07-.67.11-1.04.11Z"/>
    <path class="st0" d="M79.65,125.15c-.59,0-1.15-.11-1.68-.33-.54-.22-1.01-.54-1.43-.96s-.74-.94-.99-1.55c-.24-.61-.36-1.31-.36-2.09s.12-1.47.36-2.09c.24-.61.57-1.13.99-1.55s.89-.74,1.43-.97c.54-.22,1.1-.33,1.68-.33s1.15.11,1.69.33c.54.22,1.02.55,1.43.97s.74.94.99,1.55c.25.61.37,1.31.37,2.09s-.12,1.47-.37,2.09-.58,1.13-.99,1.55-.88.74-1.43.96c-.54.22-1.11.33-1.69.33ZM79.65,123.35c.69,0,1.23-.28,1.63-.85.4-.57.59-1.32.59-2.27s-.2-1.72-.59-2.29c-.4-.57-.94-.85-1.63-.85s-1.23.28-1.62.85c-.39.57-.58,1.33-.58,2.29s.19,1.7.58,2.27c.39.57.93.85,1.62.85Z"/>
    <path class="st0" d="M88.71,124.92l4.08-12.52h2.6l4.08,12.52h-2.34l-.98-3.39h-4.21l-.98,3.39h-2.26ZM92.9,118.25l-.44,1.53h3.2l-.44-1.53c-.2-.66-.4-1.35-.58-2.05-.18-.7-.37-1.4-.55-2.09h-.08c-.18.7-.36,1.4-.54,2.1-.18.7-.37,1.38-.57,2.04Z"/>
    <path class="st0" d="M100.82,124.92v-9.4h1.82l.15,1.26h.08c.42-.41.88-.76,1.37-1.05.49-.29,1.06-.44,1.71-.44,1.01,0,1.74.32,2.2.97s.69,1.57.69,2.77v5.9h-2.2v-5.61c0-.78-.11-1.33-.34-1.65-.23-.32-.61-.48-1.13-.48-.41,0-.77.1-1.08.3-.31.2-.67.49-1.06.87v6.57h-2.2Z"/>
    <path class="st0" d="M114.84,125.15c-1.19,0-2.13-.43-2.82-1.29s-1.04-2.07-1.04-3.63c0-.77.11-1.46.33-2.07s.52-1.13.89-1.55c.37-.42.79-.75,1.27-.98.48-.23.97-.34,1.48-.34s.99.09,1.36.28c.37.19.74.44,1.11.76l-.08-1.51v-3.41h2.2v13.51h-1.82l-.15-1.01h-.08c-.34.34-.75.64-1.21.88-.46.24-.94.36-1.46.36ZM115.37,123.33c.7,0,1.36-.35,1.97-1.05v-4.38c-.33-.29-.65-.5-.97-.61-.31-.11-.63-.17-.95-.17-.61,0-1.13.27-1.55.8-.42.54-.63,1.3-.63,2.3s.18,1.8.55,2.33.89.79,1.58.79Z"/>
    <path class="st0" d="M124.62,125.15c-.83,0-1.5-.25-2.01-.76-.51-.5-.77-1.17-.77-2,0-.5.11-.94.32-1.33.21-.39.54-.72,1-1,.45-.28,1.03-.52,1.72-.71.69-.19,1.53-.34,2.5-.44-.01-.24-.05-.48-.11-.7-.06-.22-.15-.42-.29-.59s-.31-.31-.53-.4c-.22-.1-.49-.14-.8-.14-.46,0-.91.09-1.35.27-.44.18-.87.4-1.29.65l-.8-1.47c.52-.33,1.11-.62,1.76-.86.65-.24,1.35-.36,2.11-.36,1.17,0,2.05.35,2.63,1.04.58.7.87,1.7.87,3.02v5.57h-1.82l-.15-1.03h-.08c-.42.36-.87.66-1.35.9-.48.24-1,.36-1.56.36ZM125.33,123.42c.38,0,.73-.09,1.04-.27.31-.18.65-.43,1-.77v-2.11c-.64.08-1.17.18-1.61.31s-.78.27-1.05.43c-.27.16-.46.34-.57.55-.11.2-.17.42-.17.65,0,.42.13.73.38.92.25.19.58.29.98.29Z"/>
    <path class="st0" d="M134.36,125.15c-.79,0-1.35-.24-1.67-.71-.32-.47-.48-1.12-.48-1.93v-11.1h2.2v11.22c0,.27.05.46.15.56.1.11.21.16.33.16h.14s.11-.01.2-.04l.29,1.65c-.29.13-.68.19-1.17.19Z"/>
    <path class="st0" d="M140.2,125.15c-1.01,0-1.74-.32-2.2-.97-.46-.64-.69-1.57-.69-2.77v-5.9h2.2v5.61c0,.78.11,1.33.34,1.65s.6.48,1.11.48c.41,0,.77-.1,1.08-.31.31-.2.65-.54,1-1v-6.43h2.2v9.4h-1.8l-.17-1.38h-.06c-.41.49-.85.87-1.33,1.17-.48.29-1.04.44-1.69.44Z"/>
    <path class="st0" d="M147.3,124.92v-1.19l4.44-6.47h-3.94v-1.74h6.7v1.17l-4.42,6.47h4.58v1.76h-7.35Z"/>
    <path class="st0" d="M163.65,125.15c-1.19,0-2.13-.43-2.82-1.29s-1.04-2.07-1.04-3.63c0-.77.11-1.46.33-2.07s.52-1.13.89-1.55c.37-.42.79-.75,1.27-.98.48-.23.97-.34,1.48-.34s.99.09,1.36.28c.37.19.74.44,1.11.76l-.08-1.51v-3.41h2.2v13.51h-1.82l-.15-1.01h-.08c-.34.34-.75.64-1.21.88-.46.24-.94.36-1.46.36ZM164.19,123.33c.7,0,1.36-.35,1.97-1.05v-4.38c-.33-.29-.65-.5-.97-.61-.31-.11-.63-.17-.95-.17-.61,0-1.13.27-1.55.8-.42.54-.63,1.3-.63,2.3s.18,1.8.55,2.33.89.79,1.58.79Z"/>
    <path class="st0" d="M175.18,125.15c-.65,0-1.26-.11-1.82-.33-.56-.22-1.05-.55-1.47-.97s-.75-.93-.99-1.54c-.24-.61-.35-1.3-.35-2.08s.12-1.46.36-2.07c.24-.61.56-1.13.97-1.55.4-.42.86-.75,1.39-.98s1.06-.34,1.61-.34c.64,0,1.2.11,1.68.32.49.22.89.52,1.22.92s.57.87.74,1.42.25,1.15.25,1.8c0,.22-.01.42-.03.61-.02.19-.04.34-.07.46h-5.97c.1.84.4,1.49.89,1.94.49.45,1.12.68,1.89.68.41,0,.79-.06,1.14-.18.35-.12.7-.29,1.04-.51l.75,1.38c-.45.29-.94.54-1.49.73-.55.19-1.12.29-1.72.29ZM172.67,119.33h4.17c0-.73-.16-1.3-.47-1.71-.31-.42-.79-.62-1.44-.62-.56,0-1.05.2-1.47.59s-.68.98-.78,1.74Z"/>
    <path class="st0" d="M1.92,147.89l4.08-12.52h2.6l4.08,12.52h-2.34l-.98-3.39h-4.21l-.98,3.39H1.92ZM6.11,141.23l-.44,1.53h3.2l-.44-1.53c-.2-.66-.4-1.35-.58-2.05-.18-.7-.37-1.4-.55-2.09h-.08c-.18.7-.36,1.4-.54,2.1-.18.7-.37,1.38-.57,2.04Z"/>
    <path class="st0" d="M17.33,148.12c-1.19,0-2.13-.43-2.82-1.29s-1.04-2.07-1.04-3.63c0-.76.11-1.46.33-2.07.22-.61.52-1.13.89-1.55.37-.42.79-.75,1.27-.98s.97-.34,1.48-.34c.54,0,.99.09,1.36.28.37.19.74.44,1.11.76l-.08-1.51v-3.41h2.2v13.52h-1.82l-.15-1.01h-.08c-.34.35-.75.64-1.21.88-.46.24-.94.36-1.46.36ZM17.87,146.3c.7,0,1.36-.35,1.97-1.05v-4.38c-.33-.29-.65-.5-.97-.61-.31-.12-.63-.17-.95-.17-.61,0-1.13.27-1.55.8-.42.54-.63,1.3-.63,2.3s.18,1.8.55,2.33c.36.53.89.79,1.58.79Z"/>
    <path class="st0" d="M24.84,147.89v-9.4h1.82l.15,1.28h.08c.4-.42.83-.78,1.29-1.07s.99-.44,1.58-.44c.69,0,1.24.15,1.66.44.41.29.73.71.95,1.24.45-.48.91-.89,1.4-1.21.48-.32,1.03-.48,1.63-.48,1,0,1.73.32,2.2.97s.71,1.57.71,2.77v5.9h-2.22v-5.61c0-.78-.12-1.33-.35-1.65-.24-.32-.6-.48-1.08-.48-.59,0-1.24.39-1.97,1.17v6.57h-2.2v-5.61c0-.78-.12-1.33-.35-1.65-.24-.32-.6-.48-1.1-.48-.59,0-1.24.39-1.97,1.17v6.57h-2.2Z"/>
    <path class="st0" d="M42.08,136.84c-.4,0-.72-.11-.98-.34-.26-.23-.38-.53-.38-.9s.13-.67.38-.91c.26-.24.58-.35.98-.35s.72.12.98.35c.26.24.38.54.38.91s-.13.67-.38.9c-.26.23-.58.34-.98.34ZM40.97,147.89v-9.4h2.2v9.4h-2.2Z"/>
    <path class="st0" d="M45.99,147.89v-9.4h1.82l.15,1.26h.08c.42-.41.88-.76,1.37-1.05.49-.29,1.06-.44,1.71-.44,1.01,0,1.74.32,2.2.97.46.64.69,1.57.69,2.77v5.9h-2.2v-5.61c0-.78-.11-1.33-.34-1.65-.23-.32-.61-.48-1.13-.48-.41,0-.77.1-1.08.3-.31.2-.67.49-1.06.87v6.57h-2.2Z"/>
    <path class="st0" d="M57.82,136.84c-.4,0-.72-.11-.98-.34-.26-.23-.38-.53-.38-.9s.13-.67.38-.91c.26-.24.58-.35.98-.35s.72.12.98.35c.26.24.38.54.38.91s-.13.67-.38.9c-.26.23-.58.34-.98.34ZM56.71,147.89v-9.4h2.2v9.4h-2.2Z"/>
    <path class="st0" d="M64.35,148.12c-.65,0-1.29-.12-1.92-.37s-1.18-.56-1.64-.93l1.03-1.42c.42.33.84.59,1.25.78s.86.28,1.35.28c.51,0,.89-.11,1.13-.32.24-.21.36-.48.36-.81,0-.19-.06-.36-.17-.51-.11-.15-.27-.28-.46-.39-.19-.11-.41-.22-.65-.32-.24-.1-.48-.19-.73-.3-.31-.11-.62-.25-.94-.4-.32-.15-.6-.34-.85-.55-.25-.22-.45-.47-.61-.76-.16-.29-.24-.63-.24-1.03,0-.83.31-1.5.92-2.03s1.45-.79,2.51-.79c.65,0,1.24.11,1.76.34.52.23.98.49,1.36.79l-1.01,1.34c-.33-.24-.67-.44-1-.58-.34-.15-.69-.22-1.06-.22-.47,0-.82.1-1.04.3-.22.2-.33.44-.33.74,0,.19.05.35.16.49.11.13.25.25.43.35.18.1.39.2.62.29.24.09.48.18.74.27.32.11.64.25.96.39s.61.33.87.55c.26.22.47.48.63.79.16.31.24.69.24,1.12,0,.41-.08.79-.24,1.14-.16.35-.39.66-.7.92-.31.26-.69.47-1.15.62-.46.15-.98.23-1.57.23Z"/>
    <path class="st0" d="M72.9,148.12c-.55,0-1.01-.08-1.39-.25-.38-.17-.68-.4-.92-.7-.24-.3-.41-.66-.52-1.07s-.16-.88-.16-1.39v-4.48h-1.34v-1.65l1.46-.1.27-2.56h1.84v2.56h2.39v1.74h-2.39v4.48c0,1.1.44,1.65,1.32,1.65.17,0,.33-.02.51-.06.17-.04.33-.09.47-.15l.38,1.63c-.26.09-.55.17-.87.24-.33.07-.67.11-1.04.11Z"/>
    <path class="st0" d="M76.5,147.89v-9.4h1.82l.15,1.67h.08c.33-.61.73-1.08,1.21-1.41.47-.33.96-.49,1.45-.49.45,0,.8.06,1.07.19l-.38,1.91c-.17-.05-.32-.09-.46-.11-.14-.03-.31-.04-.52-.04-.37,0-.76.14-1.17.43-.41.29-.76.79-1.05,1.5v5.74h-2.2Z"/>
    <path class="st0" d="M85.42,148.12c-.83,0-1.5-.25-2.01-.76-.51-.5-.77-1.17-.77-2,0-.5.11-.94.32-1.33s.54-.72,1-1.01c.45-.28,1.03-.52,1.72-.71.7-.19,1.53-.34,2.5-.44-.01-.24-.05-.48-.11-.7-.06-.22-.15-.42-.29-.59-.13-.17-.31-.31-.53-.4-.22-.1-.49-.14-.8-.14-.46,0-.91.09-1.35.27-.44.18-.87.4-1.29.65l-.8-1.47c.52-.33,1.11-.62,1.76-.86.65-.24,1.35-.36,2.11-.36,1.17,0,2.05.35,2.63,1.04s.87,1.7.87,3.02v5.57h-1.82l-.15-1.03h-.08c-.42.36-.87.66-1.35.9-.48.24-1,.36-1.56.36ZM86.13,146.39c.38,0,.73-.09,1.04-.27.31-.18.65-.43,1-.76v-2.11c-.64.08-1.17.18-1.61.31s-.78.27-1.05.43c-.27.16-.46.34-.57.55-.11.2-.17.42-.17.65,0,.42.13.73.38.92.26.19.58.29.98.29Z"/>
    <path class="st0" d="M96.95,148.12c-.64,0-1.23-.11-1.79-.33-.56-.22-1.04-.54-1.45-.96-.41-.42-.73-.94-.96-1.55s-.34-1.31-.34-2.09.13-1.47.38-2.09c.26-.61.6-1.13,1.03-1.55s.93-.74,1.5-.97c.57-.22,1.16-.33,1.79-.33s1.14.1,1.58.31c.44.2.83.45,1.18.75l-1.07,1.43c-.26-.22-.51-.38-.76-.51s-.52-.18-.81-.18c-.77,0-1.38.28-1.86.85-.47.57-.71,1.33-.71,2.29s.23,1.7.7,2.27c.47.57,1.07.85,1.81.85.37,0,.72-.08,1.04-.24s.62-.35.89-.56l.9,1.46c-.45.38-.93.67-1.46.86s-1.06.29-1.6.29Z"/>
    <path class="st0" d="M102.98,136.84c-.4,0-.72-.11-.98-.34-.26-.23-.38-.53-.38-.9s.13-.67.38-.91c.25-.24.58-.35.98-.35s.72.12.98.35c.25.24.38.54.38.91s-.13.67-.38.9c-.26.23-.58.34-.98.34ZM101.87,147.89v-9.4h2.2v9.4h-2.2Z"/>
    <path class="st0" d="M110.73,148.12c-.59,0-1.15-.11-1.68-.33-.54-.22-1.01-.54-1.43-.96-.41-.42-.74-.94-.99-1.55-.24-.61-.36-1.31-.36-2.09s.12-1.47.36-2.09c.24-.61.57-1.13.99-1.55.42-.42.89-.74,1.43-.97.54-.22,1.1-.33,1.68-.33s1.15.11,1.69.33c.54.22,1.02.55,1.43.97.41.42.74.94.99,1.55.25.61.37,1.31.37,2.09s-.12,1.47-.37,2.09c-.25.61-.58,1.13-.99,1.55-.41.42-.88.74-1.43.96-.54.22-1.11.33-1.69.33ZM110.73,146.32c.69,0,1.23-.28,1.63-.85.4-.57.59-1.32.59-2.27s-.2-1.72-.59-2.29c-.4-.57-.94-.85-1.63-.85s-1.23.28-1.62.85c-.39.57-.58,1.33-.58,2.29s.19,1.7.58,2.27c.39.57.93.85,1.62.85ZM110.69,136.92l-1.09-1.09,2.81-3.33,1.53,1.46-3.25,2.97Z"/>
    <path class="st0" d="M117.39,147.89v-9.4h1.82l.15,1.26h.08c.42-.41.88-.76,1.37-1.05.49-.29,1.06-.44,1.71-.44,1.01,0,1.74.32,2.2.97s.69,1.57.69,2.77v5.9h-2.2v-5.61c0-.78-.11-1.33-.34-1.65-.23-.32-.61-.48-1.13-.48-.41,0-.77.1-1.08.3-.31.2-.67.49-1.06.87v6.57h-2.2Z"/>
    <path class="st0" d="M132.13,147.89v-12.52h3.94c.69,0,1.33.06,1.92.19.59.13,1.11.35,1.54.65.43.31.77.71,1.01,1.2.24.49.36,1.1.36,1.83,0,.69-.12,1.29-.36,1.8-.24.51-.58.93-1,1.27-.43.34-.93.59-1.51.75-.58.16-1.21.24-1.89.24h-1.8v4.59h-2.22ZM134.35,141.51h1.63c1.84,0,2.76-.76,2.76-2.28,0-.79-.24-1.34-.72-1.64-.48-.3-1.18-.45-2.12-.45h-1.55v4.37Z"/>
    <path class="st0" d="M145.88,148.12c-1.01,0-1.74-.32-2.2-.97-.46-.64-.69-1.57-.69-2.77v-5.9h2.2v5.61c0,.78.12,1.33.35,1.65.23.32.6.48,1.11.48.41,0,.77-.1,1.08-.31.31-.2.65-.54,1.01-1v-6.43h2.2v9.4h-1.8l-.17-1.38h-.06c-.41.49-.85.87-1.33,1.17-.48.29-1.04.44-1.69.44ZM146.99,136.92l-1.09-1.09,2.81-3.33,1.53,1.46-3.25,2.97Z"/>
    <path class="st0" d="M158.28,148.12c-.43,0-.87-.11-1.31-.32-.44-.21-.86-.51-1.25-.91h-.06l-.19,1h-1.74v-13.52h2.2v3.48l-.06,1.57c.39-.35.83-.63,1.29-.84.47-.22.94-.33,1.43-.33.59,0,1.11.11,1.57.33s.85.54,1.17.96c.32.42.56.92.73,1.5s.25,1.24.25,1.97c0,.8-.11,1.52-.33,2.15s-.52,1.17-.89,1.6c-.37.43-.8.77-1.28,1-.49.23-.99.34-1.51.34ZM157.82,146.3c.62,0,1.15-.27,1.57-.81.42-.54.63-1.35.63-2.42,0-.94-.16-1.68-.48-2.2-.32-.52-.84-.79-1.55-.79-.66,0-1.35.35-2.07,1.05v4.38c.33.29.66.5.99.61.33.12.63.17.91.17Z"/>
    <path class="st0" d="M166.65,148.12c-.79,0-1.35-.24-1.67-.71-.32-.47-.48-1.12-.48-1.93v-11.1h2.2v11.22c0,.27.05.46.15.57.1.11.21.16.33.16h.14s.11-.01.2-.04l.29,1.65c-.29.13-.68.19-1.17.19Z"/>
    <path class="st0" d="M170.8,136.84c-.4,0-.72-.11-.98-.34s-.38-.53-.38-.9.13-.67.38-.91c.26-.24.58-.35.98-.35s.72.12.98.35c.25.24.38.54.38.91s-.13.67-.38.9c-.26.23-.58.34-.98.34ZM169.69,147.89v-9.4h2.2v9.4h-2.2Z"/>
    <path class="st0" d="M178.63,148.12c-.64,0-1.23-.11-1.79-.33-.55-.22-1.04-.54-1.44-.96-.41-.42-.73-.94-.96-1.55s-.34-1.31-.34-2.09.13-1.47.38-2.09c.26-.61.6-1.13,1.03-1.55s.93-.74,1.5-.97,1.16-.33,1.79-.33,1.14.1,1.58.31c.44.2.83.45,1.18.75l-1.07,1.43c-.26-.22-.51-.38-.76-.51-.25-.12-.52-.18-.81-.18-.77,0-1.38.28-1.86.85-.47.57-.71,1.33-.71,2.29s.23,1.7.7,2.27c.47.57,1.07.85,1.81.85.37,0,.72-.08,1.04-.24.33-.16.62-.35.89-.56l.9,1.46c-.45.38-.93.67-1.46.86s-1.06.29-1.6.29Z"/>
    <path class="st0" d="M185.64,148.12c-.83,0-1.5-.25-2.01-.76-.51-.5-.77-1.17-.77-2,0-.5.11-.94.32-1.33.21-.39.54-.72,1-1.01.45-.28,1.03-.52,1.72-.71s1.53-.34,2.5-.44c-.01-.24-.05-.48-.11-.7-.06-.22-.15-.42-.29-.59-.13-.17-.31-.31-.53-.4-.22-.1-.49-.14-.8-.14-.46,0-.91.09-1.35.27-.44.18-.87.4-1.29.65l-.8-1.47c.52-.33,1.11-.62,1.76-.86.65-.24,1.35-.36,2.11-.36,1.17,0,2.05.35,2.63,1.04.58.7.87,1.7.87,3.02v5.57h-1.82l-.15-1.03h-.08c-.42.36-.87.66-1.35.9-.48.24-1,.36-1.56.36ZM186.34,146.39c.38,0,.73-.09,1.04-.27.31-.18.65-.43,1.01-.76v-2.11c-.64.08-1.17.18-1.61.31s-.78.27-1.05.43c-.27.16-.46.34-.57.55-.11.2-.17.42-.17.65,0,.42.13.73.38.92.25.19.58.29.98.29Z"/>
  </g>
</svg>